<svg height="512" viewBox="0 0 60 60" width="512" xmlns="http://www.w3.org/2000/svg"><g id="036---Hydrotherapy"><path id="Shape" d="m12.8 35h-1.984c-.4222546-1.1943509-1.54921457-1.9947486-2.816-2h-5c-1.65685425 0-3 1.3431458-3 3v21c0 1.6568542 1.34314575 3 3 3h5c.84849384-.0026614 1.6557601-.3662948 2.22-1h25.08c1.467221.00049 2.906212-.4032856 4.159-1.167l18.741-11.409c1.6276173-.9901832 2.2517913-3.0449436 1.4499321-4.7731283-.8018593-1.7281847-2.7738821-2.5783375-4.5809321-1.9748717-20.848 6.951-18.513 6.324-20.03 6.324 1.212-3.362-1.819-7-5.607-7h-5.232c-1.8447784-.0022216-3.634258-.6300907-5.076-1.781-1.7965359-1.4333058-4.0257628-2.2155092-6.324-2.219zm-4.8 23h-5c-.55228475 0-1-.4477153-1-1v-21c0-.5522847.44771525-1 1-1h5c.55228475 0 1 .4477153 1 1v21c0 .5522847-.44771525 1-1 1zm21.432-17c2.653 0 4.956 2.873 3.37 5h-6.077c-1.9746028-.0018907-3.9052624.5828413-5.547 1.68l-.733.488c-.4595009.306518-.583518.9274991-.277 1.387s.9274991.583518 1.387.277c1.4719438-1.1680824 3.2909946-1.8126668 5.17-1.832 9.508 0 9.427.09 10.47-.256l18.511-6.171c.8402244-.276483 1.7543691.1198397 2.126906.922109.3725369.8022694.0854708 1.756379-.667906 2.219891l-18.745 11.41c-.9400676.5722941-2.0194331.8750007-3.12.875h-24.3v-20c2.272 0 4.43-.175 6.875 1.781 1.7968041 1.4335191 4.0264197 2.2157352 6.325 2.219z"/><path id="Shape" d="m38 38c8.822 0 16-6.688 16-14.909 0-8.016-14.683-22.212-15.308-22.812-.3868237-.37080333-.9971763-.37080333-1.384 0-.625.6-15.308 14.796-15.308 22.812 0 8.221 7.178 14.909 16 14.909zm0-35.6c4.476 4.438 14 15.056 14 20.693 0 7.116-6.28 12.907-14 12.907s-14-5.791-14-12.909c0-5.637 9.524-16.255 14-20.691z"/><path id="Shape" d="m31 26h4v4c0 1.1045695.8954305 2 2 2h2c1.1045695 0 2-.8954305 2-2v-4h4c1.1045695 0 2-.8954305 2-2v-2c0-1.1045695-.8954305-2-2-2h-4v-4c0-1.1045695-.8954305-2-2-2h-2c-1.1045695 0-2 .8954305-2 2v4h-4c-1.1045695 0-2 .8954305-2 2v2c0 1.1045695.8954305 2 2 2zm0-4h4c1.1045695 0 2-.8954305 2-2v-4h2v4c0 1.1045695.8954305 2 2 2h4v2h-4c-1.1045695 0-2 .8954305-2 2v4h-2v-4c0-1.1045695-.8954305-2-2-2h-4z"/></g></svg>